<?xml version="1.0"?>
<svg xmlns="http://www.w3.org/2000/svg" xmlns:xlink="http://www.w3.org/1999/xlink" xmlns:svgjs="http://svgjs.com/svgjs" version="1.1" width="512" height="512" x="0" y="0" viewBox="0 0 511 512" style="enable-background:new 0 0 512 512" xml:space="preserve" class=""><g><path xmlns="http://www.w3.org/2000/svg" d="m223.644531 85.332031c-94.101562 0-170.664062 76.566407-170.664062 170.667969s76.5625 170.667969 170.664062 170.667969c94.101563 0 170.667969-76.566407 170.667969-170.667969s-76.566406-170.667969-170.667969-170.667969zm0 309.335938c-76.457031 0-138.664062-62.210938-138.664062-138.667969s62.207031-138.667969 138.664062-138.667969c76.460938 0 138.667969 62.210938 138.667969 138.667969s-62.207031 138.667969-138.667969 138.667969zm0 0" fill="#faf9f9" data-original="#000000" style="" class=""/><path xmlns="http://www.w3.org/2000/svg" d="m207.644531 16v37.332031c0 8.832031 7.167969 16 16 16s16-7.167969 16-16v-37.332031c0-8.832031-7.167969-16-16-16s-16 7.167969-16 16zm0 0" fill="#faf9f9" data-original="#000000" style="" class=""/><path xmlns="http://www.w3.org/2000/svg" d="m23.730469 124.394531c-7.851563-4.03125-17.492188-.808593-21.503907 7.039063-3.988281 7.894531-.832031 17.515625 7.0625 21.503906l31.613282 16c2.328125 1.195312 4.800781 1.730469 7.210937 1.730469 5.847657 0 11.480469-3.203125 14.292969-8.769531 3.992188-7.894532.832031-17.515626-7.058594-21.503907zm0 0" fill="#faf9f9" data-original="#000000" style="" class=""/><path xmlns="http://www.w3.org/2000/svg" d="m40.925781 343.0625-31.617187 16c-7.894532 3.988281-11.050782 13.609375-7.0625 21.503906 2.816406 5.566406 8.449218 8.765625 14.296875 8.765625 2.429687 0 4.882812-.53125 7.210937-1.726562l31.613282-16c7.894531-3.988281 11.050781-13.609375 7.0625-21.503907-4.011719-7.871093-13.632813-11.09375-21.503907-7.039062zm0 0" fill="#faf9f9" data-original="#000000" style="" class=""/><path xmlns="http://www.w3.org/2000/svg" d="m223.644531 442.667969c-8.832031 0-16 7.167969-16 16v37.332031c0 8.832031 7.167969 16 16 16s16-7.167969 16-16v-37.332031c0-8.832031-7.167969-16-16-16zm0 0" fill="#faf9f9" data-original="#000000" style="" class=""/><path xmlns="http://www.w3.org/2000/svg" d="m438.003906 359.0625-31.617187-16c-7.871094-4.03125-17.492188-.832031-21.503907 7.039062-3.988281 7.894532-.832031 17.515626 7.0625 21.503907l31.613282 16c2.304687 1.195312 4.78125 1.726562 7.210937 1.726562 5.847657 0 11.476563-3.199219 14.292969-8.765625 3.992188-7.894531.8125-17.515625-7.058594-21.503906zm0 0" fill="#faf9f9" data-original="#000000" style="" class=""/><path xmlns="http://www.w3.org/2000/svg" d="m423.558594 124.394531-31.613282 16c-7.894531 3.988281-11.050781 13.609375-7.0625 21.503907 2.816407 5.566406 8.449219 8.769531 14.292969 8.769531 2.433594 0 4.886719-.535157 7.210938-1.730469l31.617187-16c7.890625-3.988281 11.050782-13.609375 7.058594-21.503906-3.988281-7.871094-13.609375-11.09375-21.503906-7.039063zm0 0" fill="#faf9f9" data-original="#000000" style="" class=""/></g></svg>
